<!-- Generated by IcoMoon.io -->
<svg version="1.1" xmlns="http://www.w3.org/2000/svg" width="28" height="32" viewBox="0 0 28 32">
<title>edit</title>
<path d="M2.88 8.352v18.976h14.208v-8.384l2.88-3.232v14.496h-19.968v-24.32h17.312l-2.4 2.464h-12.032zM26.848 2.592c1.12 1.088 1.024 2.816-0.096 3.968l-1.824 1.792 0.544-2.4-2.016-2.048-2.368 0.544 1.792-1.824c1.12-1.12 2.88-1.12 3.968-0.032zM19.84 5.76c0-0.096 2.080-0.64 2.4-0.736l0.032-0.032 2.144 2.208c-0.128 0-0.736 2.4-0.736 2.4l-11.872 12.288-5.088 1.152-0.064-0.032 1.312-5.056zM11.936 19.264l-1.44-1.472-1.12 0.192-0.736 0.704-0.32 1.28 1.472 1.44 1.248-0.288 0.736-0.736z"></path>
</svg>
