<svg style="position: absolute; width: 0; height: 0; overflow: hidden;" version="1.1" xmlns="http://www.w3.org/2000/svg" xmlns:xlink="http://www.w3.org/1999/xlink">
<defs>
<symbol id="icon-edit" viewBox="0 0 28 32">
<title>edit</title>
<path d="M2.88 8.352v18.976h14.208v-8.384l2.88-3.232v14.496h-19.968v-24.32h17.312l-2.4 2.464h-12.032zM26.848 2.592c1.12 1.088 1.024 2.816-0.096 3.968l-1.824 1.792 0.544-2.4-2.016-2.048-2.368 0.544 1.792-1.824c1.12-1.12 2.88-1.12 3.968-0.032zM19.84 5.76c0-0.096 2.080-0.64 2.4-0.736l0.032-0.032 2.144 2.208c-0.128 0-0.736 2.4-0.736 2.4l-11.872 12.288-5.088 1.152-0.064-0.032 1.312-5.056zM11.936 19.264l-1.44-1.472-1.12 0.192-0.736 0.704-0.32 1.28 1.472 1.44 1.248-0.288 0.736-0.736z"></path>
</symbol>
<symbol id="icon-trash" viewBox="0 0 26 32">
<title>trash</title>
<path d="M24.608 3.552c0.768 0 1.44 0.64 1.44 1.44s-0.672 1.44-1.44 1.44h-0.192l-4.32 22.016h-14.016l-4.288-22.016h-0.352c-0.8 0-1.44-0.64-1.44-1.44s0.64-1.44 1.44-1.44h23.168zM11.936 6.976l-0.608-0.544h-3.776l-0.576 0.544 2.464 2.496zM5.728 15.232l0.8 4.128 1.92-1.92-2.496-2.464zM6.976 13.952l2.464 2.464 2.496-2.464-2.496-2.432zM12.928 14.976l-2.432 2.464 2.432 2.464 2.464-2.464zM13.952 13.952l2.464 2.464 2.464-2.464-2.464-2.432zM12.928 12.96l2.464-2.496-2.464-2.432-2.432 2.432zM5.952 8.032l-1.376 1.344 0.544 2.72 0.832 0.864 2.496-2.496zM9.44 18.464l-2.464 2.496 2.464 2.432 2.496-2.432zM12.928 21.952l-2.432 2.464 1.824 1.856h1.216l1.856-1.856zM16.416 23.392l2.464-2.432-2.464-2.496-2.464 2.496zM19.616 19.616l0.8-4.096-0.544-0.544-2.432 2.464zM21.152 11.712l0.416-2.048-1.696-1.632-2.432 2.432 2.432 2.496zM18.88 6.976l-0.608-0.544h-3.744l-0.576 0.544 2.464 2.496zM4.256 7.712l1.28-1.28h-1.536zM7.328 23.296l0.544 2.976h2.4zM18.976 22.912l-3.424 3.36h2.72zM21.888 7.936l0.32-1.504h-1.888z"></path>
</symbol>
</defs>
</svg>
