<!-- Generated by IcoMoon.io -->
<svg version="1.1" xmlns="http://www.w3.org/2000/svg" width="26" height="32" viewBox="0 0 26 32">
<title>trash</title>
<path d="M24.608 3.552c0.768 0 1.44 0.64 1.44 1.44s-0.672 1.44-1.44 1.44h-0.192l-4.32 22.016h-14.016l-4.288-22.016h-0.352c-0.8 0-1.44-0.64-1.44-1.44s0.64-1.44 1.44-1.44h23.168zM11.936 6.976l-0.608-0.544h-3.776l-0.576 0.544 2.464 2.496zM5.728 15.232l0.8 4.128 1.92-1.92-2.496-2.464zM6.976 13.952l2.464 2.464 2.496-2.464-2.496-2.432zM12.928 14.976l-2.432 2.464 2.432 2.464 2.464-2.464zM13.952 13.952l2.464 2.464 2.464-2.464-2.464-2.432zM12.928 12.96l2.464-2.496-2.464-2.432-2.432 2.432zM5.952 8.032l-1.376 1.344 0.544 2.72 0.832 0.864 2.496-2.496zM9.44 18.464l-2.464 2.496 2.464 2.432 2.496-2.432zM12.928 21.952l-2.432 2.464 1.824 1.856h1.216l1.856-1.856zM16.416 23.392l2.464-2.432-2.464-2.496-2.464 2.496zM19.616 19.616l0.8-4.096-0.544-0.544-2.432 2.464zM21.152 11.712l0.416-2.048-1.696-1.632-2.432 2.432 2.432 2.496zM18.88 6.976l-0.608-0.544h-3.744l-0.576 0.544 2.464 2.496zM4.256 7.712l1.28-1.28h-1.536zM7.328 23.296l0.544 2.976h2.4zM18.976 22.912l-3.424 3.36h2.72zM21.888 7.936l0.32-1.504h-1.888z"></path>
</svg>
